<?xml version="1.0" standalone="no"?>
<!DOCTYPE svg PUBLIC "-//W3C//DTD SVG 20010904//EN"
 "http://www.w3.org/TR/2001/REC-SVG-20010904/DTD/svg10.dtd">
<svg version="1.0" xmlns="http://www.w3.org/2000/svg"
 width="824.000000pt" height="824.000000pt" viewBox="0 0 824.000000 824.000000"
 preserveAspectRatio="xMidYMid meet">
<metadata>
Created by potrace 1.14, written by Peter Selinger 2001-2017
</metadata>
<g transform="translate(0.000000,824.000000) scale(0.100000,-0.100000)"
fill="#000000" stroke="none">
<path d="M5779 5566 c-3 -3 -20 -8 -39 -11 -19 -3 -43 -8 -52 -11 -23 -7 -60
-15 -78 -17 -8 -1 -17 -5 -20 -8 -5 -7 -93 -53 -97 -51 -7 3 -153 -133 -153
-143 0 -5 -6 -13 -35 -48 -15 -17 -61 -115 -74 -158 -17 -53 -21 -78 -26 -141
-3 -54 -2 -58 18 -59 49 -1 123 -1 132 1 6 1 15 1 20 0 12 -2 188 -2 195 1 3
1 10 0 15 -1 22 -5 95 -3 101 3 3 3 11 4 17 1 24 -8 98 -10 103 -2 3 5 10 6
15 3 14 -9 89 -11 89 -3 0 4 11 3 25 -2 15 -6 26 -6 30 1 4 5 13 6 22 1 8 -5
32 -6 53 -2 21 4 44 4 51 -1 7 -4 19 -4 27 0 7 4 34 5 58 1 25 -4 47 -3 50 2
3 4 13 4 23 -1 9 -5 23 -6 30 -2 7 5 30 5 51 1 21 -4 44 -4 51 1 7 4 17 5 21
3 13 -8 49 6 43 16 -3 5 -7 27 -9 47 -5 54 -17 116 -26 128 -4 6 -6 18 -5 28
2 9 0 17 -5 17 -4 0 -13 14 -19 31 -6 17 -29 59 -52 93 -113 167 -291 268
-479 270 -30 1 -58 4 -61 9 -3 4 -7 5 -10 3z"/>
<path d="M3877 4924 c-3 -4 -48 -7 -99 -9 -51 -2 -93 -4 -93 -5 0 -1 -13 -3
-30 -6 -49 -6 -90 -12 -92 -15 -3 -2 -2 -1 -58 -14 -46 -10 -53 -12 -60 -15
-3 -1 -9 -4 -15 -5 -5 -1 -11 -3 -12 -4 -2 -2 -12 -4 -23 -6 -38 -8 -251 -100
-265 -116 -3 -3 -25 -15 -50 -28 -25 -13 -54 -31 -65 -40 -32 -28 -51 -31 -73
-11 -11 10 -22 16 -26 13 -3 -3 -8 2 -12 11 -3 9 -11 16 -17 16 -6 0 -29 8
-51 19 -130 59 -263 78 -411 57 -33 -5 -70 -9 -82 -10 -11 0 -19 -4 -17 -8 4
-6 -54 -24 -68 -20 -5 1 -8 -2 -8 -7 0 -5 -13 -14 -30 -19 -16 -6 -50 -25 -74
-41 -25 -17 -47 -31 -51 -31 -6 0 -100 -94 -130 -131 -31 -38 -75 -107 -75
-119 0 -5 -5 -10 -11 -10 -5 0 -8 -4 -4 -9 3 -5 1 -12 -4 -15 -5 -3 -12 -17
-15 -30 -3 -14 -11 -38 -18 -53 -6 -15 -12 -30 -13 -33 -1 -6 -18 -111 -19
-122 -1 -3 -4 -9 -7 -13 -4 -3 -3 -20 0 -38 l7 -32 324 0 c179 -1 326 -4 327
-8 1 -4 -7 -28 -19 -54 -12 -27 -23 -57 -25 -67 -2 -11 -8 -25 -14 -33 -6 -7
-9 -13 -5 -13 3 0 0 -16 -8 -35 -8 -19 -13 -35 -11 -35 2 0 -2 -17 -9 -37 -12
-34 -20 -76 -32 -163 -3 -24 -13 -131 -18 -193 -2 -23 1 -27 16 -24 10 3 18 2
18 -1 0 -9 193 -7 207 1 6 4 13 4 16 1 3 -3 108 -6 234 -5 125 0 255 0 288 0
33 1 97 0 143 -2 45 -1 82 2 82 6 0 5 5 5 12 1 6 -4 50 -6 97 -5 47 1 102 1
121 0 19 -1 44 -1 55 -1 23 0 122 1 313 1 74 1 138 4 143 7 5 3 9 2 9 -3 0 -4
39 -7 87 -6 49 1 120 2 158 2 39 0 81 0 94 0 17 1 22 -3 17 -15 -3 -9 -9 -34
-12 -57 -4 -23 -11 -48 -17 -54 -6 -9 -6 -13 2 -13 7 0 9 -5 5 -11 -3 -6 -8
-37 -9 -70 -2 -58 8 -76 33 -60 7 4 36 4 66 1 30 -3 64 -2 75 2 12 4 21 4 21
-1 0 -5 12 -6 28 -4 37 5 124 4 130 -2 2 -2 13 0 23 6 11 5 19 6 19 2 0 -7 85
-9 100 -3 3 1 10 1 15 0 23 -4 157 -2 162 3 3 4 13 2 23 -3 10 -5 20 -7 23 -3
7 7 228 6 235 -1 2 -3 13 -1 23 5 11 5 19 6 19 2 0 -9 213 -8 235 1 8 3 15 2
15 -2 0 -4 24 -6 52 -4 67 4 68 4 101 -1 15 -2 29 -1 31 2 3 4 34 4 70 1 36
-3 74 -3 83 1 10 4 22 4 28 1 5 -3 30 -5 55 -3 57 2 56 2 110 2 25 0 52 -1 60
-1 8 0 53 0 101 -2 47 -1 91 2 97 6 24 15 1 202 -39 317 -12 35 -22 70 -22 77
0 6 -3 12 -7 12 -4 0 -13 18 -20 40 -7 22 -19 45 -27 51 -7 6 -13 15 -13 20 0
10 -83 131 -112 163 -44 48 -83 86 -90 86 -5 0 -8 6 -8 13 0 6 -18 22 -40 35
-22 12 -40 27 -40 32 0 6 -4 10 -10 10 -5 0 -35 16 -65 35 -47 30 -125 69
-153 76 -4 1 -22 8 -39 16 -18 7 -33 10 -33 7 0 -4 -6 -2 -12 4 -7 5 -26 13
-43 16 -16 3 -45 8 -64 11 -18 4 -51 7 -72 8 -21 1 -39 5 -39 8 0 3 -22 3 -49
-1 -27 -3 -58 -3 -70 2 -12 4 -21 3 -21 -1 0 -5 -8 -8 -17 -7 -10 2 -32 0 -49
-4 -28 -7 -33 -4 -50 29 -23 43 -72 118 -96 145 -17 19 -22 32 -19 49 1 5 -3
6 -8 3 -5 -3 -24 13 -43 36 -40 51 -143 154 -188 188 -18 14 -41 32 -51 40
-75 59 -139 102 -139 92 0 -4 -4 -2 -8 4 -6 10 -217 119 -240 125 -4 1 -18 6
-32 11 -14 5 -32 11 -41 13 -22 4 -101 26 -119 33 -8 3 -24 7 -35 8 -11 2 -49
9 -85 15 -36 6 -100 13 -143 15 -43 2 -81 6 -86 8 -4 3 -11 3 -14 0z"/>
<path d="M3115 2961 c-3 -5 -2 -12 3 -15 5 -3 9 1 9 9 0 17 -3 19 -12 6z"/>
</g>
</svg>
